# Blender v2.83.1 OBJ File: 'herramienta.blend'
# www.blender.org
mtllib herramienta.mtl
o Cube.001
v -0.117381 0.815649 -0.253064
v -0.117381 0.585409 -0.253064
v 0.112856 0.815649 -0.251750
v 0.112856 0.585409 -0.251750
v -0.120433 0.815649 0.281494
v -0.120433 0.585409 0.281494
v 0.109804 0.815649 0.282809
v 0.109804 0.585409 0.282809
v -0.085396 0.624898 -0.251588
v -0.085396 0.214709 -0.251588
v 0.093997 0.624898 -0.250564
v 0.093997 0.214709 -0.250564
v -0.086420 0.624898 -0.072195
v -0.086420 0.214709 -0.072195
v 0.092973 0.624898 -0.071171
v 0.092973 0.214709 -0.071171
vt 0.922399 0.901807
vt 0.672399 0.526515
vt 0.922398 0.526515
vt 0.292328 0.507576
vt 0.042328 0.882868
vt 0.042328 0.507576
vt 0.003527 0.989583
vt 0.253527 0.827943
vt 0.253527 0.989583
vt 0.471781 0.534091
vt 0.721781 0.909383
vt 0.471781 0.909383
vt 0.246473 0.711174
vt 0.496473 0.549534
vt 0.496473 0.711174
vt 0.352293 0.930216
vt 0.602293 0.554924
vt 0.602293 0.930216
vt 0.672399 0.901807
vt 0.292328 0.882868
vt 0.003527 0.827943
vt 0.721781 0.534091
vt 0.246473 0.549534
vt 0.352293 0.554924
vt 0.822090 0.176136
vt 0.572090 0.426136
vt 0.572090 0.176136
vt 0.500000 0.000000
vt 0.750000 0.373557
vt 0.500000 0.373557
vt 0.250000 0.000000
vt 0.500000 0.373557
vt 0.250000 0.373557
vt 0.000000 0.290223
vt 0.250000 0.453598
vt 0.000000 0.453598
vt 1.000000 0.373557
vt 0.750000 0.000000
vt 1.000000 0.000000
vt 0.000000 0.000000
vt 0.250000 0.373557
vt 0.000000 0.373557
vt 0.822090 0.426136
vt 0.750000 0.000000
vt 0.500000 0.000000
vt 0.250000 0.290223
vt 0.750000 0.373557
vt 0.250000 0.000000
vn 0.0000 1.0000 0.0000
vn 1.0000 0.0000 0.0057
vn -0.0057 0.0000 1.0000
vn 0.0000 -1.0000 0.0000
vn 0.0057 0.0000 -1.0000
vn -1.0000 0.0000 -0.0057
usemtl Material.001
s off
f 5/1/1 3/2/1 1/3/1
f 3/4/2 8/5/2 4/6/2
f 7/7/3 6/8/3 8/9/3
f 2/10/4 8/11/4 6/12/4
f 1/13/5 4/14/5 2/15/5
f 5/16/6 2/17/6 6/18/6
f 5/1/1 7/19/1 3/2/1
f 3/4/2 7/20/2 8/5/2
f 7/7/3 5/21/3 6/8/3
f 2/10/4 4/22/4 8/11/4
f 1/13/5 3/23/5 4/14/5
f 5/16/6 1/24/6 2/17/6
usemtl Material
f 13/25/1 11/26/1 9/27/1
f 11/28/2 16/29/2 12/30/2
f 15/31/3 14/32/3 16/33/3
f 10/34/4 16/35/4 14/36/4
f 9/37/5 12/38/5 10/39/5
f 13/40/6 10/41/6 14/42/6
f 13/25/1 15/43/1 11/26/1
f 11/28/2 15/44/2 16/29/2
f 15/31/3 13/45/3 14/32/3
f 10/34/4 12/46/4 16/35/4
f 9/37/5 11/47/5 12/38/5
f 13/40/6 9/48/6 10/41/6
