# Blender v2.83.1 OBJ File: 'skybox.blend'
# www.blender.org
mtllib skybox.mtl
o Cube
v -112.076790 109.991089 -114.124390
v -112.076790 -114.124390 -109.991089
v -112.076790 114.124390 109.991089
v -112.076790 -109.991089 114.124390
v 112.076790 109.991089 -114.124390
v 112.076790 -114.124390 -109.991089
v 112.076790 114.124390 109.991089
v 112.076790 -109.991089 114.124390
vt 0.498377 0.938590
vt 0.498346 0.632921
vt 0.257785 0.632658
vt 0.258760 0.329108
vt 0.013611 0.330008
vt 0.988508 0.631979
vt 0.987761 0.330089
vt 0.760017 0.330093
vt 0.498819 0.330631
vt 0.498681 0.025821
vt 0.257190 0.025195
vt 0.760764 0.632116
vt 0.258212 0.938727
vt 0.012636 0.631898
vn 0.0000 0.9998 -0.0184
vn 0.0000 0.0184 0.9998
vn 1.0000 -0.0000 0.0000
vn 0.0000 -0.9998 0.0184
vn -1.0000 -0.0000 0.0000
vn 0.0000 -0.0184 -0.9998
usemtl Material
s off
f 5/1/1 1/2/1 3/3/1
f 3/3/2 4/4/2 8/5/2
f 7/6/3 8/7/3 6/8/3
f 2/9/4 6/10/4 8/11/4
f 1/2/5 2/9/5 4/4/5
f 5/12/6 6/8/6 2/9/6
f 5/1/1 3/3/1 7/13/1
f 3/3/2 8/5/2 7/14/2
f 7/6/3 6/8/3 5/12/3
f 2/9/4 8/11/4 4/4/4
f 1/2/5 4/4/5 3/3/5
f 5/12/6 2/9/6 1/2/6
